<svg id="Layer_1" enable-background="new 0 0 64 64" height="512" viewBox="0 0 64 64" width="512" xmlns="http://www.w3.org/2000/svg"><g><g><path d="m24.691 45c-2.209 0-4-1.791-4-4v-4c0-2.209 1.791-4 4-4z" fill="#6fa4d8"/></g><g><path d="m40.691 45c2.209 0 4-1.791 4-4v-4c0-2.209-1.791-4-4-4z" fill="#5c76b2"/></g><g><path d="m40.691 15h-16c-2.209 0-4 1.791-4 4v10c0 2.209 1.791 4 4 4v12c0 3.314 2.686 6 6 6h4c3.314 0 6-2.686 6-6v-12c2.209 0 4-1.791 4-4v-10c0-2.209-1.791-4-4-4z" fill="#f68820"/></g><g><path d="m28.691 15h-10c-1.105 0-2-.895-2-2v-1c0-.552-.448-1-1-1-.552 0-1 .448-1 1v3c0 2.209 1.791 4 4 4h8c3.314 0 6 2.686 6 6v-6c0-2.209-1.791-4-4-4z" fill="#6fa4d8"/></g><g><path d="m36.691 15h10c1.105 0 2-.895 2-2v-1c0-.552.448-1 1-1 .552 0 1 .448 1 1v3c0 2.209-1.791 4-4 4h-8c-3.314 0-6 2.686-6 6v-6c0-2.209 1.791-4 4-4z" fill="#5c76b2"/></g><g><g><path d="m29.691 44h4v34h-4z" fill="#f68820" transform="matrix(0 1 -1 0 92.691 29.309)"/></g><g><path d="m29.691 36h4v34h-4z" fill="#fbd301" transform="matrix(0 1 -1 0 84.691 21.309)"/></g><g><path d="m14.691 55h34v4h-34z" fill="#fbbe18"/></g><g><path d="m14.691 51-11.106 5.553c-.369.184-.369.71 0 .894l11.106 5.553z" fill="#db9e68"/></g><g><path d="m14.691 51-11.106 5.553c-.184.092-.276.269-.276.447h11.382z" fill="#eec78e"/></g><g><path d="m4.691 56-1.106.553c-.369.184-.369.71 0 .894l1.106.553z" fill="#353744"/></g><g><path d="m44.691 55h12v4h-12z" fill="#b3b4b6" transform="matrix(0 1 -1 0 107.691 6.309)"/></g><g><path d="m47.691 52h6v4h-6z" fill="#dbdee3" transform="matrix(0 1 -1 0 104.691 3.309)"/></g><g><path d="m60.691 60v-6c0-1.657-1.343-3-3-3h-5v12h4 1c1.657 0 3-1.343 3-3z" fill="#353744"/></g><g><path d="m60.691 57v-3c0-1.657-1.343-3-3-3h-5v6z" fill="#55525b"/></g></g><g><path d="m54.691 7h-44c-1.105 0-2-.895-2-2 0-1.105.895-2 2-2h44c1.105 0 2 .895 2 2 0 1.105-.895 2-2 2z" fill="#353744"/></g><g><path d="m34.691 5c0-1.105-.895-2-2-2h-22c-1.105 0-2 .895-2 2 0 1.104.895 2 2 2h22c1.105 0 2-.896 2-2z" fill="#55525b"/></g><g><path d="m45.191 15h-25c-.552 0-1-.448-1-1v-7h27v7c0 .552-.448 1-1 1z" fill="#353744"/></g><g><path d="m32.691 15h-12.5c-.552 0-1-.448-1-1v-3h11.5c1.105 0 2 .895 2 2z" fill="#55525b"/></g><g><path d="m50.691 3h2v12h-2z" fill="#f68820"/></g><g><path d="m30.691 3h22c0-1.105-.895-2-2-2h-18c-1.105 0-2 .895-2 2z" fill="#fbbe18"/></g><g><circle cx="51.691" cy="15" fill="#fbbe18" r="2"/></g><g><path d="m49.691 15h4v2h-4z" fill="#b3b4b6"/></g><g><path d="m49.691 15h2v2h-2z" fill="#dbdee3"/></g><g><path d="m51.691 25h-2c-.552 0-1-.448-1-1v-6c0-.552.448-1 1-1h2z" fill="#fbbe18"/></g><g><path d="m51.691 25h2c.552 0 1-.448 1-1v-6c0-.552-.448-1-1-1h-2z" fill="#f68820"/></g><g><path d="m50.691 25v-6.5c0-.276-.224-.5-.5-.5s-.5.224-.5.5v6.5z" fill="#f68820"/></g><g><path d="m53.691 25v-3.5c0-.276-.224-.5-.5-.5s-.5.224-.5.5v3.5z" fill="#fbbe18"/></g><g><circle cx="26.691" cy="25" fill="#dbdee3" r="6"/></g><g><circle cx="26.691" cy="25" fill="#dbdee3" r="6"/></g><g><circle cx="26.691" cy="25" fill="#55525b" r="2"/></g><g><circle cx="38.691" cy="25" fill="#dbdee3" r="6"/></g><g><circle cx="38.691" cy="25" fill="#55525b" r="2"/></g><g><path d="m32.691 25c1.24 0 2.124 1.203 1.754 2.386l-.8 2.559c-.292.936-1.617.936-1.909 0l-.8-2.559c-.369-1.183.515-2.386 1.755-2.386z" fill="#55525b"/></g><g><path d="m29.691 35c-1.105 0-2-.895-2-2h4c0 1.105-.895 2-2 2z" fill="#fbbe18"/></g><g><path d="m35.691 35c-1.105 0-2-.895-2-2h4c0 1.105-.895 2-2 2z" fill="#fbbe18"/></g><g><path d="m29.691 43c-1.105 0-2-.895-2-2h4c0 1.105-.895 2-2 2z" fill="#fbbe18"/></g><g><path d="m35.691 43c-1.105 0-2-.895-2-2h4c0 1.105-.895 2-2 2z" fill="#fbbe18"/></g><g><path d="m32.691 39c-1.105 0-2-.895-2-2h4c0 1.105-.895 2-2 2z" fill="#fbbe18"/></g><g><path d="m32.691 47c-1.105 0-2-.895-2-2h4c0 1.105-.895 2-2 2z" fill="#fbbe18"/></g><g><path d="m26.191 53c.552 0 1-.448 1-1v-2c0-.552-.448-1-1-1-.552 0-1 .448-1 1v2c0 .552.448 1 1 1z" fill="#6fa4d8"/></g><g><path d="m28.191 53c.552 0 1-.448 1-1v-2c0-.552-.448-1-1-1-.552 0-1 .448-1 1v2c0 .552.448 1 1 1z" fill="#6fa4d8"/></g><g><path d="m30.191 53c.552 0 1-.448 1-1v-2c0-.552-.448-1-1-1-.552 0-1 .448-1 1v2c0 .552.448 1 1 1z" fill="#6fa4d8"/></g><g><path d="m35.191 53c.552 0 1-.448 1-1v-2c0-.552-.448-1-1-1-.552 0-1 .448-1 1v2c0 .552.448 1 1 1z" fill="#6fa4d8"/></g><g><path d="m37.191 53c.552 0 1-.448 1-1v-2c0-.552-.448-1-1-1-.552 0-1 .448-1 1v2c0 .552.448 1 1 1z" fill="#6fa4d8"/></g><g><path d="m39.191 53c.552 0 1-.448 1-1v-2c0-.552-.448-1-1-1-.552 0-1 .448-1 1v2c0 .552.448 1 1 1z" fill="#6fa4d8"/></g></g></svg>