<svg id="Layer_1" enable-background="new 0 0 64 64" height="512" viewBox="0 0 64 64" width="512" xmlns="http://www.w3.org/2000/svg"><g><g><path d="m50.5 56.451h-37c-2.209 0-4-1.791-4-4v-40.5c0-2.209 1.791-4 4-4h37c2.209 0 4 1.791 4 4v40.5c0 2.209-1.791 4-4 4z" fill="#f68820"/></g><g><path d="m50.5 44.451-12 12h-25c-2.209 0-4-1.791-4-4v-40.5c0-2.209 1.791-4 4-4h33c2.209 0 4 1.791 4 4z" fill="#fbd301"/></g><g><path d="m44.5 7.951v-1c0-1.933-1.567-3.5-3.5-3.5s-3.5 1.567-3.5 3.5v2c0 1.933 1.567 3.5 3.5 3.5h2v-2h-2c-.828 0-1.5-.672-1.5-1.5v-2c0-.828.672-1.5 1.5-1.5s1.5.672 1.5 1.5v1z" fill="#6fa4d8"/></g><g><path d="m32.5 7.951v-1c0-1.933-1.567-3.5-3.5-3.5s-3.5 1.567-3.5 3.5v2c0 1.933 1.567 3.5 3.5 3.5h2v-2h-2c-.828 0-1.5-.672-1.5-1.5v-2c0-.828.672-1.5 1.5-1.5s1.5.672 1.5 1.5v1z" fill="#6fa4d8"/></g><g><path d="m31 3.451c-1.933 0-3.5 1.567-3.5 3.5v2c0 1.933 1.567 3.5 3.5 3.5.552 0 1-.448 1-1s-.448-1-1-1c-.828 0-1.5-.672-1.5-1.5v-2c0-.828.672-1.5 1.5-1.5s1.5.672 1.5 1.5v1h2v-1c0-1.933-1.567-3.5-3.5-3.5z" fill="#5c76b2"/></g><g><path d="m20.5 7.951v-1c0-1.933-1.567-3.5-3.5-3.5s-3.5 1.567-3.5 3.5v2c0 1.933 1.567 3.5 3.5 3.5h2v-2h-2c-.828 0-1.5-.672-1.5-1.5v-2c0-.828.672-1.5 1.5-1.5s1.5.672 1.5 1.5v1z" fill="#6fa4d8"/></g><g><path d="m19 3.451c-1.933 0-3.5 1.567-3.5 3.5v2c0 1.933 1.567 3.5 3.5 3.5.552 0 1-.448 1-1s-.448-1-1-1c-.828 0-1.5-.672-1.5-1.5v-2c0-.828.672-1.5 1.5-1.5s1.5.672 1.5 1.5v1h2v-1c0-1.933-1.567-3.5-3.5-3.5z" fill="#5c76b2"/></g><g><path d="m43 3.451c-1.933 0-3.5 1.567-3.5 3.5v2c0 1.933 1.567 3.5 3.5 3.5.552 0 1-.448 1-1s-.448-1-1-1c-.828 0-1.5-.672-1.5-1.5v-2c0-.828.672-1.5 1.5-1.5s1.5.672 1.5 1.5v1h2v-1c0-1.933-1.567-3.5-3.5-3.5z" fill="#5c76b2"/></g><g><g><path d="m13.5 23.451h8v19.5h-8z" fill="#b3b4b6" transform="matrix(-1 0 0 -1 35 66.401)"/></g><g><path d="m13.5 23.451h4v19.5h-4z" fill="#dbdee3" transform="matrix(-1 0 0 -1 31 66.401)"/></g><g><path d="m17.5 15.451c-1.105 0-2 .895-2 2v2h4v-2c0-1.105-.895-2-2-2z" fill="#b3b4b6"/></g><g><path d="m17.5 15.451c-1.105 0-2 .895-2 2v2h2z" fill="#dbdee3"/></g><g><path d="m13.5 54.951 3.584 5.376c.198.297.634.297.832 0l3.584-5.376z" fill="#b3b4b6"/></g><g><path d="m16.5 59.451.584.876c.198.297.634.297.832 0l.584-.876z" fill="#55525b"/></g><g><path d="m13.5 42.951h8v12h-8z" fill="#353744"/></g><g><path d="m13.5 42.951h4v12h-4z" fill="#55525b"/></g><g><path d="m20 19.451h-5c-.828 0-1.5.672-1.5 1.5v2.5h8v-2.5c0-.829-.672-1.5-1.5-1.5z" fill="#353744"/></g><g><path d="m17.5 19.451h-2.5c-.828 0-1.5.672-1.5 1.5v2.5h4z" fill="#55525b"/></g><g><path d="m13.5 23.451v-2h-2c-1.105 0-2 .895-2 2v11.5c0 1.105.895 2 2 2s2-.895 2-2-.895-2-2-2v-9.5z" fill="#55525b"/></g></g><g><path d="m50.5 44.451h-8c-2.209 0-4 1.791-4 4v8z" fill="#f68820"/></g><g><path d="m50.5 44.451v8c0 2.209-1.791 4-4 4h-8z" fill="#f68820"/></g><g><path d="m50.5 44.451-8 12h-4z" fill="#bf6b1e"/></g><g><g><path d="m32.5 20.951h13c.552 0 1-.448 1-1 0-.552-.448-1-1-1h-13c-.552 0-1 .448-1 1 0 .552.448 1 1 1z" fill="#f68820"/></g><g><path d="m26.5 25.951h19c.552 0 1-.448 1-1 0-.552-.448-1-1-1h-19c-.552 0-1 .448-1 1 0 .552.448 1 1 1z" fill="#f68820"/></g><g><path d="m39.5 38.951h-13c-.552 0-1 .448-1 1 0 .552.448 1 1 1h13c.552 0 1-.448 1-1 0-.553-.448-1-1-1z" fill="#f68820"/></g><g><path d="m45.5 33.951h-19c-.552 0-1 .448-1 1 0 .552.448 1 1 1h19c.552 0 1-.448 1-1 0-.553-.448-1-1-1z" fill="#f68820"/></g><g><path d="m26.5 30.951h19c.552 0 1-.448 1-1 0-.552-.448-1-1-1h-19c-.552 0-1 .448-1 1 0 .552.448 1 1 1z" fill="#f68820"/></g></g></g></svg>