<svg id="Layer_1" enable-background="new 0 0 64 64" height="512" viewBox="0 0 64 64" width="512" xmlns="http://www.w3.org/2000/svg"><g><g><path d="m38 39v-10h-12v10l-14.4 19.2c-1.483 1.978-.072 4.8 2.4 4.8h36c2.472 0 3.883-2.822 2.4-4.8z" fill="#6fa4d8"/></g><g><path d="m52.4 58.2-14.4-19.2v-10h-6-6v2.5h4.5c.828 0 1.5.672 1.5 1.5v6l8 24h10c2.472 0 3.883-2.822 2.4-4.8z" fill="#5c76b2"/></g><g><path d="m38 29h-12c-1.105 0-2-.895-2-2 0-1.105.895-2 2-2h12c1.105 0 2 .895 2 2 0 1.105-.895 2-2 2z" fill="#6fa4d8"/></g><g><path d="m38 25h-6c1.105 0 2 .895 2 2s-.895 2-2 2h6c1.105 0 2-.895 2-2s-.895-2-2-2z" fill="#5c76b2"/></g><g><path d="m48 59h-32l7.5-10 .001-.001c2.124-2.834 6.375-2.835 8.5-.002l.001.001c2.125 2.832 6.372 2.833 8.498.002z" fill="#f68820"/></g><g><path d="m40.5 49-.001-.001c-2.124-2.834-6.375-2.835-8.5-.002l-.001.001c-2.125 2.832-6.372 2.833-8.498.002l-7.5 10h32z" fill="#fbbe18"/></g><g><path d="m40.5 49-.001-.001c-1.41-1.882-3.756-2.507-5.796-1.89l3.964 11.891h9.333z" fill="#f68820"/></g><g><circle cx="28.5" cy="54" fill="#f68820" r="1.5"/></g><g><circle cx="25" cy="56.5" fill="#f68820" r="1"/></g><g><circle cx="27" cy="14" fill="#f68820" r="5"/></g><g><circle cx="25.5" cy="12.5" fill="#fbbe18" r="1.5"/></g><g><circle cx="37" cy="20" fill="#f68820" r="3"/></g><g><circle cx="36" cy="19" fill="#fbbe18" r="1"/></g><g><path d="m41.25 2.25c0 .69-1.25 2.75-1.25 2.75s-1.25-2.06-1.25-2.75.56-1.25 1.25-1.25 1.25.56 1.25 1.25z" fill="#f68820"/></g><g><path d="m36.511 3.542c.598.346 1.757 2.458 1.757 2.458s-2.409.053-3.007-.292c-.597-.346-.802-1.11-.457-1.708s1.11-.803 1.707-.458z" fill="#f68820"/></g><g><path d="m35.261 8.292c.598-.345 3.007-.292 3.007-.292s-1.159 2.112-1.757 2.458c-.598.345-1.362.14-1.708-.458-.344-.598-.139-1.362.458-1.708z" fill="#f68820"/></g><g><path d="m38.75 11.75c0-.69 1.25-2.75 1.25-2.75s1.25 2.06 1.25 2.75-.56 1.25-1.25 1.25-1.25-.56-1.25-1.25z" fill="#f68820"/></g><g><path d="m43.489 10.458c-.598-.346-1.757-2.458-1.757-2.458s2.409-.053 3.007.292.803 1.11.458 1.708c-.346.598-1.111.803-1.708.458z" fill="#f68820"/></g><g><path d="m44.739 5.708c-.598.345-3.007.292-3.007.292s1.159-2.112 1.757-2.458 1.362-.14 1.707.458.14 1.362-.457 1.708z" fill="#f68820"/></g></g></svg>